<svg width="20" height="22" viewBox="0 0 20 22" fill="none" xmlns="http://www.w3.org/2000/svg">
<path d="M2.49994 19V9H14.4999V10C15.1999 10 15.8699 10.1 16.4999 10.29V9C16.4999 7.9 15.5999 7 14.4999 7H13.4999V5C13.4999 2.24 11.2599 0 8.49994 0C5.73994 0 3.49994 2.24 3.49994 5V7H2.49994C1.39994 7 0.499939 7.9 0.499939 9V19C0.499939 20.1 1.39994 21 2.49994 21H8.75994C8.33994 20.4 8.00994 19.72 7.78994 19H2.49994ZM5.49994 5C5.49994 3.34 6.83994 2 8.49994 2C10.1599 2 11.4999 3.34 11.4999 5V7H5.49994V5Z" fill="#C6C5D0"/>
<path d="M14.4999 12C11.7399 12 9.49994 14.24 9.49994 17C9.49994 19.76 11.7399 22 14.4999 22C17.2599 22 19.4999 19.76 19.4999 17C19.4999 14.24 17.2599 12 14.4999 12ZM16.1499 19.35L13.9999 17.2V14H14.9999V16.79L16.8499 18.64L16.1499 19.35Z" fill="#C6C5D0"/>
</svg>
