<svg width="50" height="66" viewBox="0 0 50 66" fill="none" xmlns="http://www.w3.org/2000/svg">
<path d="M38.125 21.3333C31.6792 21.3333 26.4583 26.5542 26.4583 33C26.4583 39.4458 31.6792 44.6667 38.125 44.6667C44.5708 44.6667 49.7917 39.4458 49.7917 33C49.7917 26.5542 44.5708 21.3333 38.125 21.3333ZM30.8333 33C30.8333 28.975 34.1 25.7083 38.125 25.7083C39.35 25.7083 40.4583 26.0292 41.4792 26.5542L31.6792 36.3542C31.1542 35.3333 30.8333 34.225 30.8333 33ZM38.125 40.2917C36.9 40.2917 35.7917 39.9708 34.7708 39.4458L44.5708 29.6458C45.0958 30.6667 45.4167 31.775 45.4167 33C45.4167 37.025 42.15 40.2917 38.125 40.2917Z" fill="white"/>
<path d="M35.2083 50.5H6.04168V15.5H35.2083V18.4167H41.0417V6.75001C41.0417 3.54167 38.4167 0.916672 35.2083 0.916672H6.04168C2.83334 0.916672 0.208344 3.54167 0.208344 6.75001V59.25C0.208344 62.4583 2.83334 65.0833 6.04168 65.0833H35.2083C38.4167 65.0833 41.0417 62.4583 41.0417 59.25V47.5833H35.2083V50.5ZM6.04168 6.75001H35.2083V9.66667H6.04168V6.75001ZM35.2083 59.25H6.04168V56.3333H35.2083V59.25Z" fill="white"/>
</svg>
